<svg
  width="24"
  height="24"
  viewBox="0 0 24 24"
  fill="none"
  xmlns="http://www.w3.org/2000/svg"
>
<path
    d="M8.69686 21.6229L8.32019 20.9743L8.69686 21.6229ZM7.87037 20.9977L7.12604 20.9056L7.87037 20.9977ZM7.21612 17.5006L6.5611 17.866L6.56564 17.8739L7.21612 17.5006ZM6.22841 15.7301L6.88343 15.3647L6.87889 15.3568L6.22841 15.7301ZM21.7707 14.0296L22.1474 14.6781L21.7707 14.0296ZM21.6584 13.0084L21.9657 12.3242L21.9657 12.3242L21.6584 13.0084ZM19.005 10.6536L18.3498 11.0186L18.3545 11.0269L19.005 10.6536ZM18.0673 8.97025L18.7226 8.60524L18.7178 8.59693L18.0673 8.97025ZM8.68537 6.41728L9.06205 7.06583L8.68537 6.41728ZM14.8833 21.5403L15.26 22.1889L14.8833 21.5403ZM1.3251 11.5815C1.38351 11.9916 1.7633 12.2766 2.17337 12.2182C2.58345 12.1598 2.86852 11.78 2.81011 11.3699L1.3251 11.5815ZM3.54996 7.62908C3.76661 7.27605 3.65605 6.81422 3.30301 6.59757C2.94998 6.38092 2.48815 6.49148 2.2715 6.84451L3.54996 7.62908ZM11.9284 1.25135C11.5142 1.25921 11.1849 1.6013 11.1927 2.01544C11.2006 2.42958 11.5427 2.75894 11.9568 2.75108L11.9284 1.25135ZM15.5506 3.94426C15.8728 4.20456 16.345 4.15438 16.6053 3.83217C16.8656 3.50997 16.8154 3.03775 16.4932 2.77745L15.5506 3.94426ZM8.61471 21.0897C8.75015 19.9944 8.66672 18.5214 7.8666 17.1272L6.56564 17.8739C7.1582 18.9064 7.23464 20.0273 7.12604 20.9056L8.61471 21.0897ZM7.87109 17.1352L6.88338 15.3647L5.57344 16.0955L6.56115 17.866L7.87109 17.1352ZM21.9657 12.3242C21.1769 11.97 20.2571 11.3285 19.6555 10.2803L18.3545 11.0269C19.1552 12.422 20.3605 13.2477 21.3511 13.6926L21.9657 12.3242ZM19.6602 10.2886L18.7225 8.60527L17.4121 9.33524L18.3498 11.0186L19.6602 10.2886ZM18.7178 8.59693C16.6113 4.92662 11.9522 3.65261 8.3087 5.76873L9.06205 7.06583C11.977 5.37282 15.7187 6.38482 17.4168 9.34358L18.7178 8.59693ZM22.1474 14.6781C22.6699 14.3746 22.7883 13.8126 22.7393 13.4132C22.6903 13.0147 22.4546 12.5438 21.9657 12.3242L21.3511 13.6926C21.2975 13.6685 21.2704 13.6354 21.2608 13.6206C21.252 13.6071 21.2509 13.5997 21.2504 13.596C21.2501 13.593 21.2472 13.5692 21.2632 13.529C21.2815 13.4828 21.3231 13.4222 21.394 13.381L22.1474 14.6781ZM6.87889 15.3568C5.20695 12.4436 6.192 8.73275 9.06205 7.06583L8.3087 5.76873C4.71552 7.85564 3.50054 12.4838 5.57793 16.1034L6.87889 15.3568ZM8.32019 20.9743C8.3931 20.932 8.46916 20.926 8.52042 20.934C8.56483 20.9409 8.58418 20.9561 8.58594 20.9575C8.58837 20.9594 8.59355 20.9634 8.60016 20.977C8.60751 20.9921 8.62187 21.0318 8.61471 21.0897L7.12604 20.9056C7.05948 21.444 7.34596 21.8937 7.666 22.1422C7.9862 22.3909 8.54034 22.5811 9.07354 22.2714L8.32019 20.9743ZM21.394 13.381L8.32019 20.9743L9.07354 22.2714L22.1474 14.6781L21.394 13.381ZM15.5134 17.6593C16.1214 18.7186 15.7295 20.1816 14.5066 20.8918L15.26 22.1889C17.1208 21.1081 17.8755 18.7616 16.8144 16.9127L15.5134 17.6593ZM14.5066 20.8918C13.2858 21.6009 11.8371 21.2117 11.2309 20.1555L9.92997 20.9022C10.9929 22.7543 13.3971 23.2708 15.26 22.1889L14.5066 20.8918ZM8.82151 3.83736C9.21057 4.51527 8.9779 5.38006 8.3087 5.76873L9.06205 7.06583C10.4486 6.26051 10.9203 4.48087 10.1225 3.09071L8.82151 3.83736ZM8.3087 5.76873C7.64213 6.15587 6.78773 5.92795 6.40015 5.25263L5.09919 5.99929C5.89852 7.39204 7.67283 7.87268 9.06205 7.06583L8.3087 5.76873ZM6.40015 5.25263C6.01109 4.57473 6.24376 3.70994 6.91296 3.32127L6.15961 2.02417C4.77304 2.82949 4.30134 4.60913 5.09919 5.99929L6.40015 5.25263ZM6.91296 3.32127C7.57953 2.93413 8.43393 3.16205 8.82151 3.83736L10.1225 3.09071C9.32314 1.69796 7.54883 1.21732 6.15961 2.02417L6.91296 3.32127ZM2.81011 11.3699C2.62274 10.0546 2.87421 8.73021 3.54996 7.62908L2.2715 6.84451C1.40065 8.26357 1.09188 9.94429 1.3251 11.5815L2.81011 11.3699ZM11.9568 2.75108C13.2796 2.72599 14.553 3.13829 15.5506 3.94426L16.4932 2.77745C15.202 1.73432 13.5785 1.22004 11.9284 1.25135L11.9568 2.75108Z"
    fill="white"
  />
</svg>
