<svg
  width="24"
  height="24"
  viewBox="0 0 24 24"
  fill="none"
  xmlns="http://www.w3.org/2000/svg"
>
<path
    d="M21.1175 16.1074L20.4337 15.7994C20.3291 16.0315 20.3494 16.3007 20.4876 16.5145C20.6258 16.7283 20.8629 16.8574 21.1175 16.8574V16.1074ZM21.617 9.25904L22.3383 9.05346L21.617 9.25904ZM21.1283 16.1074L21.8704 15.9986C21.8163 15.6303 21.5005 15.3574 21.1283 15.3574V16.1074ZM21.95 21.708L21.8402 22.4499C22.0749 22.4847 22.3122 22.4063 22.48 22.2387C22.6479 22.071 22.7265 21.8339 22.6921 21.5992L21.95 21.708ZM16.544 20.9079L16.6538 20.166C16.4996 20.1432 16.3421 20.169 16.2032 20.2398L16.544 20.9079ZM3.98299 17.9772L3.38171 18.4255H3.38171L3.98299 17.9772ZM2.01816 11.3978L1.26952 11.3526L2.01816 11.3978ZM4.75979 5.10224L4.21677 4.58491L4.75979 5.10224ZM10.9152 2.05903L10.8338 1.31346L10.9152 2.05903ZM17.5821 3.70301L18.0007 3.08074V3.08074L17.5821 3.70301ZM8.76 12.5089L9.29032 13.0393L9.29033 13.0393L8.76 12.5089ZM8.83772 11.7198L8.21412 12.1364L8.21412 12.1364L8.83772 11.7198ZM8.55723 11.4896L8.27022 12.1825L8.27022 12.1825L8.55723 11.4896ZM7.70506 11.9451L6.96947 11.7987L6.96947 11.7987L7.70506 11.9451ZM7.74063 12.3062L8.43354 12.0192L7.74063 12.3062ZM12.1156 12.3062L11.4227 12.5932L11.4227 12.5932L12.1156 12.3062ZM12.9322 11.4896L12.6452 12.1825L12.6452 12.1825L12.9322 11.4896ZM13.2127 11.7198L12.5891 12.1364L12.5891 12.1364L13.2127 11.7198ZM13.135 12.5089L13.6653 13.0393L13.6653 13.0393L13.135 12.5089ZM16.7208 12.5867L16.3041 13.2103L16.3041 13.2103L16.7208 12.5867ZM17.51 12.5089L18.0403 13.0393L18.0403 13.0393L17.51 12.5089ZM17.5877 11.7198L18.2113 11.3031L18.2113 11.3031L17.5877 11.7198ZM17.3072 11.4896L17.0202 12.1825L17.0202 12.1825L17.3072 11.4896ZM16.9461 11.454L17.0924 12.1896H17.0924L16.9461 11.454ZM16.6261 11.625L17.1564 12.1554L17.1564 12.1554L16.6261 11.625ZM16.4551 11.9451L17.1907 12.0914L17.1907 12.0914L16.4551 11.9451ZM16.4906 12.3062L15.7977 12.5932L15.7977 12.5932L16.4906 12.3062ZM21.8013 16.4155C22.8436 14.1018 23.0338 11.4939 22.3383 9.05346L20.8957 9.46461C21.4942 11.5645 21.3306 13.8085 20.4337 15.7994L21.8013 16.4155ZM21.1283 15.3574H21.1175V16.8574H21.1283V15.3574ZM22.6921 21.5992L21.8704 15.9986L20.3862 16.2163L21.208 21.8169L22.6921 21.5992ZM16.4342 21.6499L21.8402 22.4499L22.0598 20.9661L16.6538 20.166L16.4342 21.6499ZM9.55744 22.4688C12.0287 23.0454 14.6243 22.7292 16.8848 21.576L16.2032 20.2398C14.2581 21.2321 12.0247 21.5042 9.89826 21.008L9.55744 22.4688ZM3.38171 18.4255C4.89853 20.46 7.08615 21.8922 9.55744 22.4688L9.89826 21.008C7.77181 20.5119 5.88943 19.2795 4.58426 17.5289L3.38171 18.4255ZM1.26952 11.3526C1.11669 13.8856 1.86489 16.3911 3.38171 18.4255L4.58426 17.5289C3.2791 15.7784 2.6353 13.6225 2.7668 11.4429L1.26952 11.3526ZM4.21677 4.58491C2.46636 6.42222 1.42235 8.81954 1.26952 11.3526L2.7668 11.4429C2.8983 9.26333 3.79663 7.20052 5.30281 5.61957L4.21677 4.58491ZM10.8338 1.31346C8.31115 1.58875 5.96719 2.74759 4.21677 4.58491L5.30281 5.61957C6.80898 4.03863 8.82587 3.04148 10.9965 2.80461L10.8338 1.31346ZM18.0007 3.08074C15.8952 1.6642 13.3565 1.03817 10.8338 1.31346L10.9965 2.80461C13.1672 2.56773 15.3517 3.1064 17.1634 4.32529L18.0007 3.08074ZM22.3383 9.05346C21.6427 6.613 20.1062 4.49728 18.0007 3.08074L17.1634 4.32529C18.9751 5.54417 20.2972 7.36468 20.8957 9.46461L22.3383 9.05346ZM8.31805 11.942C8.34278 11.942 8.36694 11.9493 8.3875 11.9631L7.55415 13.2103C7.78026 13.3613 8.04611 13.442 8.31805 13.442V11.942ZM8.22967 11.9786C8.25311 11.9552 8.2849 11.942 8.31805 11.942V13.442C8.68273 13.442 9.03246 13.2971 9.29032 13.0393L8.22967 11.9786ZM8.19305 12.067C8.19305 12.0338 8.20622 12.002 8.22967 11.9786L9.29033 13.0393C9.54819 12.7814 9.69305 12.4317 9.69305 12.067H8.19305ZM8.21412 12.1364C8.20038 12.1159 8.19305 12.0917 8.19305 12.067H9.69305C9.69305 11.795 9.61241 11.5292 9.46132 11.3031L8.21412 12.1364ZM8.27022 12.1825C8.24738 12.173 8.22785 12.157 8.21412 12.1364L9.46133 11.3031C9.31024 11.077 9.09549 10.9007 8.84424 10.7967L8.27022 12.1825ZM8.34244 12.1896C8.31819 12.1944 8.29306 12.1919 8.27022 12.1825L8.84425 10.7967C8.593 10.6926 8.31653 10.6654 8.04981 10.7184L8.34244 12.1896ZM8.40644 12.1554C8.38896 12.1729 8.36669 12.1848 8.34244 12.1896L8.04981 10.7184C7.78308 10.7715 7.53808 10.9024 7.34578 11.0947L8.40644 12.1554ZM8.44065 12.0914C8.43583 12.1156 8.42392 12.1379 8.40644 12.1554L7.34578 11.0947C7.15349 11.287 7.02253 11.532 6.96947 11.7987L8.44065 12.0914ZM8.43354 12.0192C8.443 12.042 8.44548 12.0671 8.44065 12.0914L6.96947 11.7987C6.91642 12.0655 6.94365 12.3419 7.04772 12.5932L8.43354 12.0192ZM8.3875 11.9631C8.40806 11.9768 8.42408 11.9963 8.43354 12.0192L7.04772 12.5932C7.15179 12.8444 7.32803 13.0592 7.55415 13.2103L8.3875 11.9631ZM11.9291 13.2103C12.1553 13.3613 12.4211 13.442 12.6931 13.442V11.942C12.7178 11.942 12.7419 11.9493 12.7625 11.9631L11.9291 13.2103ZM11.4227 12.5932C11.5268 12.8444 11.703 13.0592 11.9291 13.2103L12.7625 11.9631C12.7831 11.9768 12.7991 11.9963 12.8085 12.0191L11.4227 12.5932ZM11.3445 11.7987C11.2914 12.0655 11.3186 12.3419 11.4227 12.5932L12.8085 12.0192C12.818 12.042 12.8205 12.0671 12.8157 12.0914L11.3445 11.7987ZM11.7208 11.0947C11.5285 11.287 11.3975 11.532 11.3445 11.7987L12.8157 12.0914C12.8108 12.1156 12.7989 12.1379 12.7814 12.1554L11.7208 11.0947ZM12.4248 10.7184C12.1581 10.7715 11.9131 10.9024 11.7208 11.0947L12.7814 12.1554C12.764 12.1729 12.7417 12.1848 12.7174 12.1896L12.4248 10.7184ZM13.2192 10.7967C12.968 10.6926 12.6915 10.6654 12.4248 10.7184L12.7174 12.1896C12.6932 12.1944 12.6681 12.1919 12.6452 12.1825L13.2192 10.7967ZM13.8363 11.3031C13.6852 11.077 13.4705 10.9007 13.2192 10.7967L12.6452 12.1825C12.6224 12.173 12.6029 12.157 12.5891 12.1364L13.8363 11.3031ZM14.0681 12.067C14.0681 11.795 13.9874 11.5292 13.8363 11.3031L12.5891 12.1364C12.5754 12.1159 12.5681 12.0917 12.5681 12.067H14.0681ZM13.6653 13.0393C13.9232 12.7814 14.0681 12.4317 14.0681 12.067H12.5681C12.5681 12.0338 12.5812 12.002 12.6047 11.9786L13.6653 13.0393ZM12.6931 13.442C13.0577 13.442 13.4075 13.2971 13.6653 13.0393L12.6047 11.9786C12.6281 11.9552 12.6599 11.942 12.6931 11.942V13.442ZM17.0681 11.942C17.0928 11.942 17.1169 11.9493 17.1375 11.9631L16.3041 13.2103C16.5303 13.3613 16.7961 13.442 17.0681 13.442V11.942ZM16.9797 11.9786C17.0031 11.9552 17.0349 11.942 17.0681 11.942V13.442C17.4327 13.442 17.7825 13.2971 18.0403 13.0393L16.9797 11.9786ZM16.9431 12.067C16.9431 12.0338 16.9562 12.002 16.9797 11.9786L18.0403 13.0393C18.2982 12.7814 18.4431 12.4317 18.4431 12.067H16.9431ZM16.9641 12.1364C16.9504 12.1159 16.9431 12.0917 16.9431 12.067H18.4431C18.4431 11.795 18.3624 11.5292 18.2113 11.3031L16.9641 12.1364ZM17.0202 12.1825C16.9974 12.173 16.9779 12.157 16.9641 12.1364L18.2113 11.3031C18.0602 11.077 17.8455 10.9007 17.5942 10.7967L17.0202 12.1825ZM17.0924 12.1896C17.0682 12.1944 17.0431 12.1919 17.0202 12.1825L17.5942 10.7967C17.343 10.6926 17.0665 10.6654 16.7998 10.7184L17.0924 12.1896ZM17.1564 12.1554C17.139 12.1729 17.1167 12.1848 17.0924 12.1896L16.7998 10.7184C16.5331 10.7715 16.2881 10.9024 16.0958 11.0947L17.1564 12.1554ZM17.1907 12.0914C17.1858 12.1156 17.1739 12.1379 17.1564 12.1554L16.0958 11.0947C15.9035 11.287 15.7725 11.532 15.7195 11.7987L17.1907 12.0914ZM17.1835 12.0192C17.193 12.042 17.1955 12.0671 17.1907 12.0914L15.7195 11.7987C15.6664 12.0655 15.6937 12.3419 15.7977 12.5932L17.1835 12.0192ZM17.1375 11.9631C17.1581 11.9768 17.1741 11.9963 17.1835 12.0191L15.7977 12.5932C15.9018 12.8444 16.078 13.0592 16.3041 13.2103L17.1375 11.9631Z"
    fill="white"
  />
</svg>
