<svg
  width="24"
  height="24"
  viewBox="0 0 24 24"
  fill="none"
  xmlns="http://www.w3.org/2000/svg"
>
<g clip-path="url(#clip0_742_756)">
<path
      d="M18.8421 7.26318H9.36845C8.20574 7.26318 7.26318 8.20574 7.26318 9.36845V18.8421C7.26318 20.0048 8.20574 20.9474 9.36845 20.9474H18.8421C20.0048 20.9474 20.9474 20.0048 20.9474 18.8421V9.36845C20.9474 8.20574 20.0048 7.26318 18.8421 7.26318Z"
      stroke="white"
      stroke-width="1.5"
      stroke-linecap="round"
      stroke-linejoin="round"
    />
<path
      d="M6.21051 16.7369H5.15788C4.59952 16.7369 4.06404 16.5151 3.66923 16.1203C3.27442 15.7255 3.05261 15.19 3.05261 14.6317V5.158C3.05261 4.59965 3.27442 4.06417 3.66923 3.66935C4.06404 3.27454 4.59952 3.05273 5.15788 3.05273H14.6316C15.1899 3.05273 15.7254 3.27454 16.1202 3.66935C16.515 4.06417 16.7368 4.59965 16.7368 5.158V6.21063"
      stroke="white"
      stroke-width="1.5"
      stroke-linecap="round"
      stroke-linejoin="round"
    />
</g>
<defs>
<clipPath id="clip0_742_756">
<rect width="20" height="20" fill="white" transform="translate(2 2)" />
</clipPath>
</defs>
</svg>
