<svg
  width="24"
  height="24"
  viewBox="0 0 24 24"
  fill="none"
  xmlns="http://www.w3.org/2000/svg"
>
<path
    d="M21.0622 7.37964H2.93779C2.2236 7.37964 1.64319 7.97313 1.64319 8.70342V12.0239C1.64319 12.367 1.89995 12.6505 2.23978 12.6825C3.12982 12.7685 3.80085 13.5242 3.80085 14.4398C3.80085 15.3554 3.12982 16.1111 2.2387 16.1971C1.89887 16.2302 1.64319 16.5137 1.64319 16.8557V20.1762C1.64319 20.9065 2.2236 21.5 2.93779 21.5H21.0622C21.7764 21.5 22.3568 20.9065 22.3568 20.1762V8.70342C22.3568 7.97313 21.7764 7.37964 21.0622 7.37964Z"
    stroke="white"
    stroke-width="1.27391"
    stroke-miterlimit="10"
    stroke-linecap="round"
  />
<path
    d="M7.25317 10.2576V11.5813"
    stroke="white"
    stroke-width="1.27391"
    stroke-miterlimit="10"
    stroke-linecap="round"
  />
<path
    d="M7.25317 13.9492V15.273"
    stroke="white"
    stroke-width="1.27391"
    stroke-miterlimit="10"
    stroke-linecap="round"
  />
<path
    d="M7.25317 17.5283V18.8521"
    stroke="white"
    stroke-width="1.27391"
    stroke-miterlimit="10"
    stroke-linecap="round"
  />
<path
    d="M18.4528 16.0874C18.2524 16.0874 18.0725 16.1354 17.9142 16.2333C17.7558 16.3303 17.6317 16.4702 17.5437 16.6511C17.4557 16.833 17.4108 17.0439 17.4108 17.2828C17.4108 17.5217 17.4548 17.7326 17.5437 17.9145C17.6317 18.0964 17.7558 18.2364 17.9142 18.3323C18.0725 18.4293 18.2524 18.4783 18.4528 18.4783C18.7617 18.4783 19.0138 18.3703 19.2084 18.1534C19.4029 17.9365 19.5006 17.6467 19.5006 17.2828C19.5006 16.919 19.4029 16.6291 19.2084 16.4122C19.0138 16.1954 18.7617 16.0874 18.4528 16.0874V16.0874Z"
    stroke="white"
    stroke-width="1.27391"
    stroke-miterlimit="10"
    stroke-linecap="round"
  />
<path
    d="M13.8118 12.9862C14.0043 12.7693 14.1011 12.4794 14.1011 12.1156C14.1011 11.7518 14.0043 11.4619 13.8118 11.245C13.6192 11.0281 13.368 10.9192 13.0591 10.9192C12.7502 10.9192 12.498 11.0281 12.3035 11.245C12.109 11.4619 12.0112 11.7518 12.0112 12.1156C12.0112 12.4794 12.109 12.7693 12.3035 12.9862C12.498 13.2031 12.7502 13.311 13.0591 13.311C13.368 13.311 13.6192 13.2031 13.8118 12.9862V12.9862Z"
    stroke="white"
    stroke-width="1.27391"
    stroke-miterlimit="10"
    stroke-linecap="round"
  />
<path
    d="M18.1829 11.1409L13.0562 18.0808"
    stroke="white"
    stroke-width="1.27391"
    stroke-miterlimit="10"
    stroke-linecap="round"
  />
<path
    d="M19.8442 5.15468L5.43208 2.52036C5.10196 2.45968 4.76752 2.5358 4.49241 2.73326C4.213 2.93293 4.02744 3.23299 3.96918 3.57828L3.64014 5.51431"
    stroke="white"
    stroke-width="1.27391"
    stroke-miterlimit="10"
    stroke-linecap="round"
  />
</svg>
