<svg
  width="24"
  height="24"
  viewBox="0 0 24 24"
  fill="none"
  xmlns="http://www.w3.org/2000/svg"
>
<path
    d="M14.4117 21.3856V15.6179C14.4117 14.9546 13.8691 14.412 13.2058 14.412H10.794C10.1308 14.412 9.58815 14.9546 9.58815 15.6179V21.3856M20.9839 10.7943L19.2353 9.04695V4.76482C19.2353 4.10157 18.6927 3.55892 18.0294 3.55892H16.8235C16.1603 3.55892 15.6176 4.10157 15.6176 4.76482V5.43168L13.2058 3.0223C12.8766 2.71118 12.5752 2.35303 11.9999 2.35303C11.4247 2.35303 11.1233 2.71118 10.794 3.0223L3.01603 10.7943C2.63979 11.1862 2.35278 11.472 2.35278 12.0002C2.35278 12.6791 2.87373 13.2061 3.55868 13.2061H4.76457V20.4414C4.76457 21.1047 5.30722 21.6473 5.97047 21.6473H18.0294C18.6927 21.6473 19.2353 21.1047 19.2353 20.4414V13.2061H20.4412C21.1261 13.2061 21.6471 12.6791 21.6471 12.0002C21.6471 11.472 21.3601 11.1862 20.9839 10.7943Z"
    stroke="white"
    stroke-width="1.5"
    stroke-linejoin="round"
  />
</svg>
