<svg
  width="24"
  height="24"
  viewBox="0 0 24 24"
  fill="none"
  xmlns="http://www.w3.org/2000/svg"
>
<path
    d="M10.0767 12.9618C10.4897 13.5139 11.0166 13.9708 11.6217 14.3013C12.2268 14.6319 12.8959 14.8285 13.5836 14.8778C14.2714 14.927 14.9617 14.8278 15.6077 14.5868C16.2537 14.3458 16.8404 13.9687 17.3278 13.4811L20.2129 10.596C21.0888 9.6891 21.5735 8.47447 21.5625 7.21371C21.5516 5.95294 21.0459 4.74692 20.1543 3.85539C19.2628 2.96386 18.0568 2.45816 16.796 2.4472C15.5353 2.43625 14.3206 2.92091 13.4137 3.79682L11.7596 5.44131"
    stroke="white"
    stroke-width="1.5"
    stroke-linecap="round"
    stroke-linejoin="round"
  />
<path
    d="M13.9234 11.0384C13.5104 10.4863 12.9834 10.0294 12.3784 9.69883C11.7733 9.36824 11.1042 9.17165 10.4164 9.12239C9.72866 9.07314 9.03836 9.17237 8.39233 9.41336C7.74631 9.65434 7.15966 10.0314 6.67219 10.5191L3.78711 13.4042C2.91121 14.3111 2.42654 15.5257 2.4375 16.7865C2.44845 18.0472 2.95416 19.2532 3.84569 20.1448C4.73721 21.0363 5.94324 21.542 7.204 21.553C8.46477 21.5639 9.6794 21.0793 10.5863 20.2034L12.2308 18.5589"
    stroke="white"
    stroke-width="1.5"
    stroke-linecap="round"
    stroke-linejoin="round"
  />
</svg>
