<svg
  width="24"
  height="24"
  viewBox="0 0 24 24"
  fill="none"
  xmlns="http://www.w3.org/2000/svg"
>
<path
    d="M3.08239 21.0212C3.14461 21.0627 3.21775 21.0849 3.29257 21.0849C3.39297 21.0847 3.48944 21.0459 3.56212 20.9766L10.4221 14.1159L13.026 16.7198C13.2403 16.9333 13.525 17.0515 13.8294 17.0515C14.1338 17.0515 14.4185 16.9341 14.6327 16.7198L15.0113 16.3412C15.2256 16.1262 15.3437 15.8415 15.3437 15.5379V13.1361C15.3436 13.0864 15.3532 13.0371 15.3722 12.9911C15.3912 12.945 15.4191 12.9033 15.4543 12.8681L18.6397 9.68266C18.6542 9.66816 18.6714 9.65667 18.6904 9.64888C18.7094 9.64108 18.7297 9.63712 18.7502 9.63723C18.7708 9.63712 18.7911 9.64108 18.8101 9.64888C18.829 9.65667 18.8463 9.66816 18.8608 9.68266C19.0334 9.85529 19.2629 9.94994 19.5074 9.94994C19.6274 9.95032 19.7463 9.92689 19.8571 9.88101C19.968 9.83513 20.0687 9.76771 20.1533 9.68266L20.7537 9.08222C20.9665 8.86914 21.0859 8.58034 21.0859 8.27924C21.0859 7.97814 20.9665 7.68934 20.7537 7.47626L16.5242 3.24669C16.3099 3.03317 16.0244 2.91505 15.7208 2.91505C15.5716 2.91438 15.4238 2.94336 15.2859 3.00029C15.1479 3.05722 15.0227 3.14097 14.9174 3.24669L14.317 3.84713C14.1462 4.01882 14.0502 4.25117 14.0502 4.49338C14.0502 4.73558 14.1462 4.96794 14.317 5.13962C14.3317 5.15413 14.3433 5.1714 14.3513 5.19044C14.3592 5.20949 14.3633 5.22991 14.3633 5.25055C14.3633 5.27118 14.3592 5.29161 14.3513 5.31065C14.3433 5.32969 14.3317 5.34697 14.317 5.36147L11.1316 8.5469C11.0965 8.58204 11.0549 8.60991 11.009 8.62888C10.9631 8.64785 10.9139 8.65756 10.8643 8.65745H8.46254C8.31331 8.65696 8.16546 8.6861 8.02756 8.74315C7.88966 8.80021 7.76445 8.88406 7.65918 8.98985L7.2806 9.36843C7.06786 9.58152 6.94838 9.87031 6.94838 10.1714C6.94838 10.4725 7.06786 10.7613 7.2806 10.9744L9.88451 13.5783L3.02453 20.4391C2.97171 20.492 2.93577 20.5595 2.92125 20.6329C2.90674 20.7063 2.9143 20.7823 2.94298 20.8514C2.97166 20.9206 3.02017 20.9796 3.08239 21.0212Z"
    stroke="white"
    stroke-width="1.5"
  />
</svg>
