<svg
  width="24"
  height="24"
  viewBox="0 0 24 24"
  fill="none"
  xmlns="http://www.w3.org/2000/svg"
>
<g clip-path="url(#clip0_920_648)">
<path
      d="M5.01797 13.5158C6.64171 14.4532 8.72052 13.8928 9.66104 12.2637C10.6016 10.6347 10.0477 8.55421 8.4238 7.61668C7.63449 7.16097 6.73771 7.05936 5.91645 7.26223L8.07098 3.53047L11.896 5.73886C11.6386 4.87328 11.7242 3.90653 12.2122 3.06129C13.1526 1.43236 15.2314 0.871716 16.8552 1.80925C18.4791 2.74678 19.033 4.82725 18.0925 6.45629C17.6045 7.30153 16.81 7.859 15.9317 8.06887L19.7568 10.2773L13.4885 21.1342C13.2124 21.6125 12.6008 21.7763 12.1225 21.5002L1.30273 15.2534L3.45727 11.5217C3.69221 12.3343 4.22865 13.06 5.01797 13.5158Z"
      stroke="white"
      stroke-width="1.5"
      stroke-linejoin="round"
    />
</g>
<defs>
<clipPath id="clip0_920_648">
<rect width="24" height="24" fill="white" />
</clipPath>
</defs>
</svg>
