<svg
  width="25"
  height="24"
  viewBox="0 0 25 24"
  fill="none"
  xmlns="http://www.w3.org/2000/svg"
>
<path
    d="M17.2535 8.5C18.7033 8.5 19.8785 7.32475 19.8785 5.875C19.8785 4.42525 18.7033 3.25 17.2535 3.25C15.8038 3.25 14.6285 4.42525 14.6285 5.875C14.6285 7.32475 15.8038 8.5 17.2535 8.5Z"
    stroke="white"
    stroke-width="1.5"
    stroke-linecap="round"
    stroke-linejoin="round"
  />
<path
    d="M6.75354 14.625C8.20329 14.625 9.37854 13.4497 9.37854 12C9.37854 10.5503 8.20329 9.375 6.75354 9.375C5.30379 9.375 4.12854 10.5503 4.12854 12C4.12854 13.4497 5.30379 14.625 6.75354 14.625Z"
    stroke="white"
    stroke-width="1.5"
    stroke-linecap="round"
    stroke-linejoin="round"
  />
<path
    d="M17.2535 20.75C18.7033 20.75 19.8785 19.5747 19.8785 18.125C19.8785 16.6753 18.7033 15.5 17.2535 15.5C15.8038 15.5 14.6285 16.6753 14.6285 18.125C14.6285 19.5747 15.8038 20.75 17.2535 20.75Z"
    stroke="white"
    stroke-width="1.5"
    stroke-linecap="round"
    stroke-linejoin="round"
  />
<path
    d="M9.01978 13.3213L14.996 16.8038"
    stroke="white"
    stroke-width="1.5"
    stroke-linecap="round"
    stroke-linejoin="round"
  />
<path
    d="M14.9873 7.19629L9.01978 10.6788"
    stroke="white"
    stroke-width="1.5"
    stroke-linecap="round"
    stroke-linejoin="round"
  />
</svg>
