<svg xmlns="http://www.w3.org/2000/svg" fill="none" viewBox="0 0 24 24" stroke-width="1.5" stroke="currentColor" aria-hidden="true">
  <path fill="#fff" d="M8.697 21.623l-.377-.649.377.649zm-.827-.625l-.744-.092.744.092zM7.216 17.5l-.655.365.005.008.65-.373zm-.988-1.77l.655-.366-.004-.008-.65.373zm15.543-1.701l.376.648-.376-.648zm-.113-1.022l.308-.684-.308.684zm-2.653-2.354l-.655.365.005.008.65-.373zm-.938-1.684l.656-.365-.005-.008-.65.373zM8.685 6.417l.377.649-.377-.649zm6.198 15.123l.377.649-.377-.649zM1.325 11.582a.75.75 0 101.485-.212l-1.485.212zM3.55 7.629a.75.75 0 00-1.278-.784l1.278.784zm8.378-6.378a.75.75 0 00.029 1.5l-.029-1.5zm3.623 2.693a.75.75 0 10.942-1.167l-.942 1.167zM8.615 21.09c.135-1.096.052-2.569-.748-3.963l-1.301.747c.592 1.032.669 2.153.56 3.032l1.489.184zm-.744-3.955l-.988-1.77-1.31.73.988 1.771 1.31-.73zm14.095-4.81c-.79-.355-1.709-.996-2.31-2.045l-1.301.747c.8 1.395 2.005 2.22 2.996 2.666l.615-1.369zm-2.306-2.036l-.938-1.684-1.31.73.938 1.684 1.31-.73zm-.942-1.692c-2.107-3.67-6.766-4.944-10.41-2.828l.754 1.297c2.915-1.693 6.657-.681 8.355 2.278l1.3-.747zm3.43 6.081c.522-.303.64-.865.591-1.265-.049-.398-.284-.87-.773-1.089l-.615 1.369a.21.21 0 01-.09-.072.056.056 0 01-.01-.025c0-.003-.004-.027.012-.067a.308.308 0 01.131-.148l.753 1.297zm-15.27.679c-1.671-2.913-.686-6.624 2.184-8.291l-.753-1.297C4.716 7.856 3.5 12.484 5.578 16.103l1.3-.746zm1.442 5.617a.313.313 0 01.2-.04.142.142 0 01.066.023c.002.002.008.006.014.02a.205.205 0 01.015.113l-1.489-.184c-.067.538.22.988.54 1.236.32.249.874.44 1.408.13l-.754-1.298zm13.074-7.593L8.32 20.974l.754 1.297 13.073-7.593-.753-1.297zm-5.88 4.278c.607 1.06.216 2.523-1.007 3.233l.753 1.297c1.86-1.08 2.615-3.427 1.554-5.276l-1.3.746zm-1.007 3.233c-1.221.709-2.67.32-3.276-.736l-1.301.746c1.063 1.852 3.467 2.369 5.33 1.287l-.753-1.297zM8.822 3.837c.389.678.156 1.543-.513 1.932l.753 1.297a2.92 2.92 0 001.06-3.975l-1.3.746zM8.309 5.77A1.392 1.392 0 016.4 5.253l-1.3.746a2.892 2.892 0 003.962 1.067l-.753-1.297zM6.4 5.253a1.419 1.419 0 01.513-1.932L6.16 2.024A2.919 2.919 0 005.1 6l1.3-.746zm.513-1.932a1.392 1.392 0 011.909.516l1.3-.746A2.892 2.892 0 006.16 2.024l.753 1.297zM2.81 11.37c-.187-1.315.064-2.64.74-3.74l-1.278-.785c-.871 1.419-1.18 3.1-.947 4.737l1.485-.212zm9.147-8.619c1.323-.025 2.596.387 3.594 1.193l.942-1.167c-1.291-1.043-2.914-1.557-4.565-1.526l.029 1.5z"/>
</svg>
