<svg xmlns="http://www.w3.org/2000/svg" fill="none" viewBox="0 0 24 24" stroke-width="1.5" stroke="currentColor" aria-hidden="true">
  <g stroke-linecap="round" stroke-miterlimit="10" stroke-width="1.5" clip-path="url(#clip0_727_759)">
    <path d="M18.653 10.155a6.185 6.185 0 00-.836-3.102 6.504 6.504 0 00-2.3-2.321 6.886 6.886 0 00-6.454-.306 6.581 6.581 0 00-2.528 2.092 6.228 6.228 0 00-1.15 3.007 6.155 6.155 0 00.516 3.166 6.429 6.429 0 002.053 2.526c.286.21.517.48.677.79.159.31.242.652.242.997v1.788c0 .2.083.39.23.531a.8.8 0 00.553.22h4.694a.8.8 0 00.553-.22.736.736 0 00.23-.53v-1.788c0-.346.082-.687.242-.997.16-.31.39-.58.677-.791a6.449 6.449 0 001.915-2.24 6.177 6.177 0 00.686-2.822zM13.568 19.902v1.252c0 .2-.083.39-.23.532a.799.799 0 01-.553.22H11.22a.799.799 0 01-.553-.22.736.736 0 01-.23-.532v-1.252M8.968 17.017h6.07M20.639 8.986h1.564M3.361 8.986H1.797M18.346 3.675l1.107-1.062M5.654 3.675L4.546 2.613M20.044 6.113l1.444-.575M3.956 6.113l-1.444-.575"/>
  </g>
  <defs>
    <clipPath id="clip0_727_759">
      <path fill="#fff" d="M0 0h22v22H0z" transform="translate(1 1)"/>
    </clipPath>
  </defs>
</svg>
