<svg xmlns="http://www.w3.org/2000/svg" fill="none" viewBox="0 0 24 24" stroke-width="1.5" stroke="currentColor" aria-hidden="true">
  <path fill="#fff" d="M21.117 16.107l-.683-.308a.75.75 0 00.683 1.058v-.75zm.5-6.848l.721-.206-.721.206zm-.489 6.848L21.87 16a.75.75 0 00-.742-.642v.75zm.822 5.601l-.11.742a.75.75 0 00.852-.85l-.742.108zm-5.406-.8l.11-.742a.75.75 0 00-.45.074l.34.668zm-12.561-2.93l-.601.447.601-.448zm-1.965-6.58l-.748-.045.748.045zM4.76 5.102l-.543-.517.543.517zm6.155-3.043l-.081-.746.081.746zm6.667 1.644l.419-.622-.419.622zM8.76 12.509l.53.53-.53-.53zm.078-.79l-.624.417.624-.416zm-.28-.23l-.288.693.287-.692zm-.853.456L6.97 11.8l.736.146zm.036.361l.693-.287-.693.287zm4.375 0l-.693.287.693-.287zm.816-.816l-.287.692.287-.692zm.28.23l-.623.416.624-.416zm-.077.789l.53.53-.53-.53zm3.586.078l-.417.623.417-.623zm.789-.078l.53.53-.53-.53zm.078-.79l.623-.416-.623.417zm-.28-.23l-.288.693.287-.692zm-.362-.035l.146.736-.146-.736zm-.32.171l.53.53-.53-.53zm-.17.32l.735.146-.736-.146zm.035.361l-.693.287.693-.287zm5.31 4.11a10.75 10.75 0 00.537-7.363l-1.442.412a9.25 9.25 0 01-.462 6.334l1.367.617zm-.673-1.059h-.01v1.5h.01v-1.5zm1.564 6.242L21.87 16l-1.484.217.822 5.6 1.484-.217zm-6.258.05l5.406.8.22-1.483-5.406-.8-.22 1.484zm-6.877.82a10.75 10.75 0 007.328-.893l-.682-1.336a9.25 9.25 0 01-6.305.768l-.34 1.46zm-6.175-4.044a10.75 10.75 0 006.175 4.044l.341-1.461a9.25 9.25 0 01-5.314-3.48l-1.202.898zM1.27 11.354a10.75 10.75 0 002.112 7.072l1.202-.896a9.25 9.25 0 01-1.817-6.086l-1.497-.09zm2.947-6.768a10.75 10.75 0 00-2.947 6.768l1.497.09A9.25 9.25 0 015.303 5.62L4.217 4.585zm6.617-3.272a10.75 10.75 0 00-6.617 3.272L5.303 5.62a9.25 9.25 0 015.693-2.815l-.162-1.492zM18 3.081a10.75 10.75 0 00-7.167-1.768l.162 1.492a9.25 9.25 0 016.167 1.52l.838-1.244zm4.337 5.972a10.75 10.75 0 00-4.337-5.972l-.838 1.244a9.25 9.25 0 013.733 5.14l1.442-.412zm-14.02 2.889c.025 0 .049.007.07.021l-.834 1.247c.226.151.492.232.764.232v-1.5zm-.088.037a.125.125 0 01.088-.037v1.5c.365 0 .714-.145.972-.403l-1.06-1.06zm-.037.088c0-.033.013-.065.037-.088l1.06 1.06c.258-.258.403-.607.403-.972h-1.5zm.021.07a.125.125 0 01-.021-.07h1.5c0-.272-.08-.538-.232-.764l-1.247.833zm.056.045a.125.125 0 01-.056-.046l1.247-.833a1.375 1.375 0 00-.617-.506l-.574 1.385zm.072.008a.126.126 0 01-.072-.008l.574-1.385a1.375 1.375 0 00-.794-.079l.292 1.472zm.064-.035a.125.125 0 01-.064.035l-.292-1.472a1.375 1.375 0 00-.704.377l1.06 1.06zm.035-.064a.125.125 0 01-.035.064l-1.06-1.06a1.375 1.375 0 00-.377.704l1.472.292zm-.007-.072c.009.023.011.048.007.072L6.969 11.8c-.053.267-.025.543.079.794l1.386-.574zm-.046-.056c.02.014.036.033.046.056l-1.386.574c.104.251.28.466.506.617l.833-1.247zm3.541 1.247c.226.151.492.232.764.232v-1.5c.025 0 .049.007.07.021l-.834 1.247zm-.506-.617c.104.251.28.466.506.617l.833-1.247c.021.014.037.033.046.056l-1.385.574zm-.079-.794c-.053.267-.025.543.079.794l1.386-.574c.009.023.011.048.007.072l-1.472-.292zm.377-.704a1.375 1.375 0 00-.377.704l1.472.292a.126.126 0 01-.035.064l-1.06-1.06zm.704-.377a1.375 1.375 0 00-.704.377l1.06 1.06a.124.124 0 01-.064.035l-.292-1.472zm.794.079a1.375 1.375 0 00-.794-.079l.292 1.472a.126.126 0 01-.072-.008l.574-1.385zm.617.506a1.374 1.374 0 00-.617-.506l-.574 1.385a.126.126 0 01-.056-.046l1.247-.833zm.232.764c0-.272-.08-.538-.232-.764l-1.247.833a.125.125 0 01-.02-.069h1.5zm-.403.972c.258-.258.403-.607.403-.972h-1.5c0-.033.013-.065.037-.088l1.06 1.06zm-.972.403c.365 0 .715-.145.972-.403l-1.06-1.06a.125.125 0 01.088-.037v1.5zm4.375-1.5c.025 0 .049.007.07.021l-.834 1.247c.226.151.492.232.764.232v-1.5zm-.088.037a.125.125 0 01.088-.037v1.5c.365 0 .714-.145.972-.403l-1.06-1.06zm-.037.088c0-.033.013-.065.037-.088l1.06 1.06c.258-.258.403-.607.403-.972h-1.5zm.021.07a.125.125 0 01-.02-.07h1.5c0-.272-.082-.538-.233-.764l-1.247.833zm.056.045a.126.126 0 01-.056-.046l1.247-.833a1.374 1.374 0 00-.617-.506l-.574 1.385zm.072.008a.126.126 0 01-.072-.008l.574-1.385a1.375 1.375 0 00-.794-.079l.292 1.472zm.064-.035a.124.124 0 01-.064.035l-.292-1.472a1.375 1.375 0 00-.704.377l1.06 1.06zm.035-.064a.126.126 0 01-.035.064l-1.06-1.06a1.375 1.375 0 00-.377.704l1.472.292zm-.008-.072c.01.023.012.048.008.072L15.72 11.8c-.054.267-.026.543.078.794l1.385-.574zm-.046-.056c.021.014.037.033.046.056l-1.385.574c.104.251.28.466.506.617l.834-1.247z"/>
</svg>
