<svg xmlns="http://www.w3.org/2000/svg" fill="none" viewBox="0 0 24 24" stroke-width="1.5" stroke="currentColor" aria-hidden="true">
  <path stroke-linecap="round" stroke-miterlimit="10" d="M21.062 7.38H2.938c-.714 0-1.295.593-1.295 1.323v3.32c0 .344.257.627.597.66.89.085 1.56.841 1.56 1.757 0 .915-.67 1.671-1.561 1.757a.658.658 0 00-.596.659v3.32c0 .73.58 1.324 1.295 1.324h18.124c.714 0 1.295-.593 1.295-1.324V8.703c0-.73-.58-1.323-1.295-1.323zM7.253 10.258v1.323M7.253 13.95v1.323M7.253 17.528v1.324"/>
  <path stroke-linecap="round" stroke-miterlimit="10" d="M18.453 16.087c-.2 0-.38.048-.539.146a.98.98 0 00-.37.418 1.435 1.435 0 00-.133.632c0 .239.044.45.133.631a.967.967 0 00.37.418c.159.097.338.146.539.146a.968.968 0 00.755-.325c.195-.216.293-.506.293-.87s-.098-.654-.293-.87a.968.968 0 00-.755-.326v0zM13.812 12.986c.192-.217.29-.507.29-.87 0-.364-.098-.654-.29-.871a.96.96 0 00-.753-.326.969.969 0 00-.755.326c-.195.217-.293.507-.293.87 0 .364.098.654.293.871a.968.968 0 00.755.325.96.96 0 00.753-.325v0zM18.183 11.14l-5.127 6.94M19.844 5.155L5.432 2.52c-.33-.06-.664.016-.94.213-.279.2-.465.5-.523.845L3.64 5.514"/>
</svg>
