<svg xmlns="http://www.w3.org/2000/svg" fill="none" viewBox="0 0 24 24" stroke-width="1.5" stroke="currentColor" aria-hidden="true">
  <path stroke-linejoin="round" d="M14.412 21.386v-5.768a1.21 1.21 0 00-1.206-1.206h-2.412a1.21 1.21 0 00-1.206 1.206v5.768m11.396-10.592l-1.749-1.747V4.765a1.21 1.21 0 00-1.206-1.206h-1.206a1.21 1.21 0 00-1.205 1.206v.667l-2.412-2.41c-.33-.31-.63-.669-1.206-.669-.575 0-.877.358-1.206.67l-7.778 7.771c-.376.392-.663.678-.663 1.206 0 .68.52 1.206 1.206 1.206h1.206v7.235a1.21 1.21 0 001.205 1.206h12.06a1.21 1.21 0 001.205-1.206v-7.235h1.206c.685 0 1.206-.527 1.206-1.206 0-.528-.287-.814-.663-1.206z"/>
</svg>
