<svg xmlns="http://www.w3.org/2000/svg" fill="none" viewBox="0 0 24 24" stroke-width="1.5" stroke="currentColor" aria-hidden="true">
  <path d="M3.082 21.021a.379.379 0 00.21.064c.101 0 .197-.04.27-.108l6.86-6.861 2.604 2.604c.214.213.499.332.803.332.305 0 .59-.118.804-.332l.378-.379c.215-.215.333-.5.333-.803v-2.402a.378.378 0 01.11-.268l3.186-3.185a.155.155 0 01.11-.046.155.155 0 01.11.046.908.908 0 00.997.198.907.907 0 00.296-.198l.6-.6a1.136 1.136 0 000-1.607l-4.229-4.23a1.131 1.131 0 00-.803-.331 1.126 1.126 0 00-.804.332l-.6.6a.916.916 0 000 1.293.156.156 0 010 .221l-3.185 3.186a.377.377 0 01-.268.11H8.463a1.128 1.128 0 00-.804.333l-.378.378a1.137 1.137 0 000 1.606l2.604 2.604-6.86 6.861a.378.378 0 00.057.582z"/>
</svg>
